<svg xmlns="http://www.w3.org/2000/svg" viewBox="0 0 96 96" role="img" aria-label="The English Codex mark">
  <rect width="96" height="96" rx="28" fill="#fffdf8"/>
  <path d="M29 20h28c6 0 10 4 10 10v46c0 2-2 4-4 4H31c-7 0-12-5-12-12V30c0-6 4-10 10-10Z" fill="#efe4d4" stroke="#2d6847" stroke-width="4"/>
  <path d="M32 20v60" stroke="#2d6847" stroke-width="4"/>
  <path d="M42 34h15M42 46h18M42 58h14" stroke="#8a650d" stroke-width="4" stroke-linecap="round"/>
  <path d="M67 28h4c4 0 6 2 6 6v42c0 2-2 4-4 4H63" fill="none" stroke="#2d6847" stroke-width="4"/>
</svg>
